<svg xmlns="http://www.w3.org/2000/svg" width="1024" height="1024" viewBox="0 0 270.933 270.933"><g style="display:inline"><path d="M101.325 6.075h270.933v270.933H101.325z" style="display:inline;fill:#000;fill-opacity:1;stroke:none;stroke-width:0;stroke-opacity:1" transform="translate(-101.325 -6.075)"/><g fill-rule="evenodd" stroke-linejoin="round" stroke-miterlimit="10" style="display:inline"><path d="M288.124 196.417c5.407 2.881 13.366 2.517 17.921 2.276 10.98-.58 9.557-13.375 1.352-13.244-2.63.043-9.985.38-13.938-.955-7.793-2.633-12.65 8.027-5.335 11.923zM277.825 142.964c0-17.12 13.838-31 30.91-31 17.07 0 30.91 13.88 30.91 31 0 17.122-13.84 31.001-30.91 31.001-17.072 0-30.91-13.88-30.91-31z" style="display:inline;fill:#fff;fill-opacity:1;stroke:#fff;stroke-width:1.29071;stroke-dasharray:none;stroke-opacity:1" transform="translate(-71.59 13.519)scale(.86151)"/><path d="M236.086 84.05c33.861 0 8.74 28.7 8.74 49.91 0 3.938 5.465 4.044 5.465-.21 0-16.26 19.298-50.594 53.47-49.57 11.28.337 11.015 16.263-.561 16.263-18.622 0-39.119 17.272-39.119 42.77 0 15.488 8.297 28.187 13.66 31.701 9.418 6.17 1.347 17.808-9.837 11.86-9.747-5.182-16.172-18.81-18.112-29.023-.697-3.67-5.255-3.6-5.197 1.223.236 19.588 18.153 40.06-8.166 40.06-28.83 0-8.043-26.863-8.043-54.025 0-19.06-1.086-28.795-3.917-28.037-2.818.755-2.653 10.602-12.743 10.737-7.745.103-12.286-5.193-12.286-12.896 0-7.556 4.965-12.304 11.49-12.304 11.786 0 7.966 9.925 13.244 8.51 5.251-1.406-17.546-26.97 11.912-26.97z" style="display:inline;fill:#fff;fill-opacity:1;stroke:#fff;stroke-width:1.29071;stroke-dasharray:none;stroke-opacity:1" transform="translate(-71.59 13.519)scale(.86151)"/><path d="M163.385 139.5c0-21.803 21.1-55.204-7.695-55.204-28.023 0-7.319 36.348-6.768 55.159.532 18.185-20.253 59.598 6.08 59.598 26.334 0 4.748-22.129 13.23-22.193 5.47-.04 4.086 22.16 24.524 22.16 16.219 0 23.655-11.765 23.655-26.604 0-13.82-7.576-25.597-23.367-25.597-21.286 0-20.176 22.564-25.383 22.564-4.819 0-4.276-10.569-4.276-29.883z" style="display:inline;fill:#fff;fill-opacity:1;stroke:#fff;stroke-width:1.29071;stroke-dasharray:none;stroke-opacity:1" transform="translate(-71.59 13.519)scale(.86151)"/></g></g></svg>