<svg width="443" height="283" xmlns="http://www.w3.org/2000/svg" xmlns:xlink="http://www.w3.org/1999/xlink" xml:space="preserve" overflow="hidden"><defs><radialGradient cx="304.48" cy="380.197" r="131.036" gradientUnits="userSpaceOnUse" spreadMethod="pad" id="fill0" gradientTransform="scale(1.01891 1.01891)"><stop offset="0" stop-color="#9FDAEE"/><stop offset="0" stop-color="#8FA5CB"/><stop offset="0.599624" stop-color="#7B94BE"/><stop offset="0.772556" stop-color="#6B86B3"/><stop offset="1" stop-color="#5472A6"/></radialGradient><radialGradient cx="159.329" cy="371.384" r="133.889" gradientUnits="userSpaceOnUse" spreadMethod="pad" id="fill1" gradientTransform="scale(1.01891 1.01891)"><stop offset="0" stop-color="#8BCA9A"/><stop offset="0" stop-color="#5CB88E"/><stop offset="0.291353" stop-color="#4EC28C"/><stop offset="1" stop-color="#2D9967"/></radialGradient><radialGradient cx="306.537" cy="379.21" r="151.102" gradientUnits="userSpaceOnUse" spreadMethod="pad" id="fill2" gradientTransform="matrix(1.01891 0 0 1.01891 0.41201 2.26605)"><stop offset="0" stop-color="#9FDAEE"/><stop offset="0" stop-color="#8FA5CB"/><stop offset="0.599624" stop-color="#7B94BE"/><stop offset="0.772556" stop-color="#6B86B3"/><stop offset="1" stop-color="#5472A6"/></radialGradient><radialGradient cx="306.537" cy="378.974" r="129.218" gradientUnits="userSpaceOnUse" spreadMethod="pad" id="fill3" gradientTransform="scale(1.01891 1.01891)"><stop offset="0" stop-color="#9FDAEE"/><stop offset="0" stop-color="#8FA5CB"/><stop offset="0.599624" stop-color="#7B94BE"/><stop offset="0.772556" stop-color="#6B86B3"/><stop offset="1" stop-color="#5472A6"/></radialGradient><radialGradient cx="493.263" cy="407.591" r="67.0909" gradientUnits="userSpaceOnUse" spreadMethod="pad" id="fill4" gradientTransform="matrix(1.01891 0 0 1.01891 -58.4076 -30.5465)"><stop offset="0" stop-color="#D596C1"/><stop offset="0.652256" stop-color="#CC7AB2"/><stop offset="1" stop-color="#BF66A3"/></radialGradient><radialGradient cx="493.263" cy="407.591" r="67.0909" gradientUnits="userSpaceOnUse" spreadMethod="pad" id="fill5" gradientTransform="matrix(1.01891 0 0 1.01891 -58.4076 -30.5465)"><stop offset="0" stop-color="#D596C1"/><stop offset="0.652256" stop-color="#CC7AB2"/><stop offset="1" stop-color="#BF66A3"/></radialGradient></defs><g><path d="M284.706 241.217C218.718 241.802 262.095 302.669 256.47 302.819 252.563 302.924 248.953 282.393 228.243 282.494 212.776 282.569 197.345 295.222 197.843 312.795 198.346 330.552 212.399 342.604 226.964 342.801 246.834 343.069 256.102 327.75 257.689 326.211 259.145 324.802 268.048 312.816 266.695 388.544 265.371 462.674 224.502 506.992 285.519 508.756 347.876 510.559 307.42 459.444 306.861 413.869 306.703 401.045 310.35 398.816 315.441 411.211 368.012 539.19 315.22 326.4 313.328 365.645 312.731 378.027 304.97 381.547 304.97 358.479 304.97 309.13 362.559 240.527 284.706 241.217Z" stroke="#5271A5" stroke-width="6.92861" stroke-linejoin="round" fill="url(#fill0)" transform="matrix(1 0 0 1.00186 -74.1181 -237.151)"/><path d="M139.611 385.525C141.653 333.77 199.508 241.234 117.339 242.102 44.8209 242.867 95.3578 336.626 96.6697 381.314 97.9379 424.514 49.9307 514.721 112.671 514.72 173.144 514.719 135.958 464.774 144.498 464.264 152.143 463.807 142.638 507.901 190.961 510.547 226.443 512.489 246.738 484.295 246.359 451.155 245.879 409.126 220.872 389.599 193.893 390.216 142.903 391.384 147.555 438.158 143.003 437.88 137.104 437.518 138.196 421.398 139.611 385.525Z" stroke="#2E9967" stroke-width="6.92861" stroke-linejoin="round" fill="url(#fill1)" transform="matrix(1 0 0 1.00186 -74.1181 -237.151)"/><path d="M395.923 503.02C406.457 507.955 418.797 511.005 428.21 511.495 458.422 513.071 460.252 481.579 437.496 479.743 428.051 478.982 415.499 475.509 406.545 471.516 384.284 461.589 372.817 492.197 395.923 503.02Z" stroke="#5271A5" stroke-width="6.92861" stroke-linejoin="round" fill="url(#fill2)" transform="matrix(1 0 0 1.00186 -74.1181 -237.151)"/><path d="M431.386 250.014C362.245 249.105 314.327 311.753 311.79 383.336 311.71 385.619 311.669 387.91 311.669 390.208 311.669 415.588 331.559 456.461 344.685 467.711 369.309 488.817 392.676 465.926 373.979 447.712 364.403 438.384 348.957 411.551 349.088 384.162 349.432 312.066 411.259 288.417 431.866 286.83 464.942 284.284 462.343 250.421 431.386 250.014Z" stroke="#5271A5" stroke-width="6.92861" stroke-linejoin="round" fill="url(#fill3)" transform="matrix(1 0 0 1.00186 -74.1181 -237.151)"/><path d="M313.558 376.422C315.675 372.795 315.067 372.665 316.853 367.09 316.946 366.802 315.991 371.467 316.614 372.089 317.893 373.367 315.279 380.873 315.383 382.638 315.862 390.767 315.046 385.247 315.353 389.023 315.46 390.342 317.065 406.702 316.887 405.394 316.68 403.874 315.133 401.037 313.651 400.137 310.246 398.071 306.373 401.492 305.475 398.213 305.288 397.529 307.322 395.714 307.228 395.012 307.118 394.186 307.089 393.377 307.066 392.546 307.028 391.173 307.96 389.682 307.924 388.317 307.863 386.059 305.451 377.956 307.155 378.566 310.418 379.734 313.309 376.85 313.558 376.422Z" fill="#8FA5CB" transform="matrix(1 0 0 1.00186 -74.1181 -237.151)"/><path d="M375.825 384.753C375.825 346.923 406.43 316.254 444.185 316.254 481.939 316.254 512.544 346.923 512.544 384.753 512.544 422.584 481.939 453.252 444.185 453.252 406.43 453.252 375.825 422.584 375.825 384.753Z" stroke="#B35595" stroke-width="6.92861" stroke-linejoin="round" fill="url(#fill4)" transform="matrix(1 0 0 1.00186 -74.1181 -237.151)"/><path d="M313.558 376.422C315.675 372.795 315.067 372.665 316.853 367.09 316.946 366.802 315.991 371.467 316.614 372.089 317.893 373.367 315.279 380.873 315.383 382.638 315.862 390.767 315.046 385.247 315.353 389.023 315.46 390.342 317.065 406.702 316.887 405.394 316.68 403.874 315.133 401.037 313.651 400.137 310.246 398.071 306.373 401.492 305.475 398.213 305.288 397.529 307.322 395.714 307.228 395.012 307.118 394.186 307.089 393.377 307.066 392.546 307.028 391.173 307.96 389.682 307.924 388.317 307.863 386.059 305.451 377.956 307.155 378.566 310.418 379.734 313.309 376.85 313.558 376.422Z" fill="#8FA5CB" transform="matrix(1 0 0 1.00186 -74.1181 -237.151)"/><path d="M375.825 384.753C375.825 346.923 406.43 316.254 444.185 316.254 481.939 316.254 512.544 346.923 512.544 384.753 512.544 422.584 481.939 453.252 444.185 453.252 406.43 453.252 375.825 422.584 375.825 384.753Z" stroke="#B35595" stroke-width="6.92861" stroke-linejoin="round" fill="url(#fill5)" transform="matrix(1 0 0 1.00186 -74.1181 -237.151)"/></g></svg>