<?xml version="1.0" encoding="UTF-8" standalone="no"?>
<svg
   width="2256"
   height="826"
   xml:space="preserve"
   overflow="hidden"
   version="1.1"
   id="svg9"
   sodipodi:docname="bko_logo_text.svg"
   inkscape:version="1.4.2 (ebf0e940d0, 2025-05-08)"
   xmlns:inkscape="http://www.inkscape.org/namespaces/inkscape"
   xmlns:sodipodi="http://sodipodi.sourceforge.net/DTD/sodipodi-0.dtd"
   xmlns="http://www.w3.org/2000/svg"
   xmlns:svg="http://www.w3.org/2000/svg"><defs
     id="defs9" /><sodipodi:namedview
     id="namedview9"
     pagecolor="#ffffff"
     bordercolor="#000000"
     borderopacity="0.25"
     inkscape:showpageshadow="2"
     inkscape:pageopacity="0.0"
     inkscape:pagecheckerboard="0"
     inkscape:deskcolor="#d1d1d1"
     inkscape:zoom="0.29720745"
     inkscape:cx="1071.6421"
     inkscape:cy="242.25503"
     inkscape:window-width="1440"
     inkscape:window-height="872"
     inkscape:window-x="0"
     inkscape:window-y="0"
     inkscape:window-maximized="1"
     inkscape:current-layer="svg9" /><g
     transform="translate(-94.259508,-232.35347)"
     id="g9"><text
       fill="#2e9967"
       font-family="Capriola, Capriola_MSFontService, sans-serif"
       font-weight="700"
       font-size="183px"
       transform="translate(1290.48,492)"
       id="text1">Bioloģijas</text><text
       fill="#2e9967"
       font-family="Capriola, Capriola_MSFontService, sans-serif"
       font-weight="700"
       font-size="183px"
       transform="translate(2223.18,492)"
       id="text2"> </text><text
       fill="#5271a5"
       font-family="Capriola, Capriola_MSFontService, sans-serif"
       font-weight="700"
       font-size="187.311px"
       transform="scale(1.0235592,0.97698305)"
       id="text3"
       x="1260.0613"
       y="728.77417"
       style="stroke-width:1.02356">komandu</text><text
       fill="#5271a5"
       font-family="Capriola, Capriola_MSFontService, sans-serif"
       font-weight="700"
       font-size="183px"
       transform="translate(2176.21,712)"
       id="text4"> </text><text
       fill="#b35595"
       font-family="Capriola, Capriola_MSFontService, sans-serif"
       font-weight="700"
       font-size="181.761px"
       transform="scale(0.99323075,1.0068154)"
       id="text5"
       x="1299.382"
       y="925.69104"
       style="stroke-width:0.993231">olimpiāde</text><text
       fill="#b35595"
       font-family="Capriola, Capriola_MSFontService, sans-serif"
       font-weight="700"
       font-size="183px"
       transform="translate(2238.08,932)"
       id="text6"> </text><path
       d="m 936.252,952.793 c 26.002,12.223 56.461,19.777 79.698,20.991 74.57,3.904 79.09,-74.097 22.92,-78.645 -23.32,-1.885 -54.298,-10.487 -76.399,-20.377 -54.948,-24.587 -83.252,51.224 -26.219,78.031 z"
       stroke="#5271a5"
       stroke-width="27.5"
       stroke-linejoin="round"
       stroke-miterlimit="10"
       fill="#8ba1c8"
       fill-rule="evenodd"
       id="path6" /><path
       d="m 885.977,659.426 c 0,-93.61 75.662,-169.5 169.003,-169.5 93.33,0 169,75.89 169,169.5 0,93.612 -75.67,169.5 -169,169.5 -93.341,0 -169.003,-75.888 -169.003,-169.5 z"
       stroke="#b35595"
       stroke-width="27.5"
       stroke-linejoin="round"
       stroke-miterlimit="10"
       fill="#d596c1"
       fill-rule="evenodd"
       id="path7" /><path
       d="m 663.642,305.012 c 192.352,-1.706 50.066,168.012 50.066,290.099 0,57.068 19.175,48.36 20.651,17.728 0.146,-3.034 0.415,-5.459 0.795,-7.32 l 1.224,-3.299 1.671,-10.724 c 29.195,-148.272 138.523,-266.688 288.001,-264.72 76.48,1.007 82.9,84.781 1.18,91.08 -50.913,3.926 -203.669,62.432 -204.519,240.792 -0.323,67.759 37.839,134.142 61.498,157.219 46.195,45.06 -11.538,101.691 -72.376,49.476 C 787.51,844.469 753.787,782.372 738.445,726.14 l -1.264,-5.765 -2.14,-4.632 c -10.146,-19.053 -17.002,-11.361 -16.661,16.398 1.382,112.75 101.336,239.205 -52.729,234.744 -150.756,-4.364 -49.78,-114.003 -46.509,-297.396 3.343,-187.346 -18.654,-157.693 -22.251,-154.207 -3.921,3.807 -26.82,41.705 -75.913,41.042 -35.985,-0.487 -70.706,-30.303 -71.949,-74.232 -1.23,-43.475 36.895,-74.778 75.11,-74.963 51.168,-0.25 60.087,50.542 69.74,50.283 13.898,-0.372 -93.274,-150.952 69.763,-152.4 z"
       stroke="#5271a5"
       stroke-width="27.5"
       stroke-linejoin="round"
       stroke-miterlimit="10"
       fill="#8ba1c8"
       fill-rule="evenodd"
       id="path8" /><path
       d="M 303.607,661.458 C 308.626,533.885 450.816,305.79 248.87,307.93 c -178.2271,1.885 -54.023,232.995 -50.799,343.148 3.117,106.485 -114.8698,328.839 39.326,328.837 148.624,-0.003 57.233,-123.114 78.221,-124.371 18.789,-1.126 -4.571,107.563 114.192,114.085 87.204,4.787 137.082,-64.71 136.151,-146.398 C 564.781,719.633 503.322,671.5 437.016,673.021 311.698,675.9 323.132,791.195 311.944,790.509 297.446,789.617 300.13,749.882 303.607,661.458 Z"
       stroke="#2e9967"
       stroke-width="27.5"
       stroke-linejoin="round"
       stroke-miterlimit="10"
       fill="#52bf8d"
       fill-rule="evenodd"
       id="path9" /></g></svg>
