<?xml version="1.0" encoding="UTF-8" standalone="no"?>
<!-- Created with Inkscape (http://www.inkscape.org/) -->

<svg
   width="77.437012mm"
   height="45.050346mm"
   viewBox="0 0 77.437012 45.050347"
   version="1.1"
   id="svg1"
   xmlns="http://www.w3.org/2000/svg"
   xmlns:svg="http://www.w3.org/2000/svg">
  <defs
     id="defs1" />
  <g
     id="layer1"
     style="display:inline"
     transform="translate(-5.1925318,-4.8927412)">
    <path
       d="m 62.421142,48.671969 c 2.094898,1.116122 5.177938,0.975004 6.942592,0.881782 4.253205,-0.224686 3.702245,-5.181534 0.523595,-5.130557 -1.018922,0.01634 -3.867986,0.147194 -5.39937,-0.370161 -3.018689,-1.019871 -4.900088,3.109423 -2.066817,4.618936 z"
       stroke-linejoin="round"
       stroke-miterlimit="10"
       fill-rule="evenodd"
       id="path6"
       style="display:inline;fill:#ffffff;stroke:#ffffff;stroke-width:0.5;stroke-dasharray:none;stroke-opacity:1" />
    <path
       d="m 58.431622,27.965248 c 0,-6.632384 5.360744,-12.009286 11.974065,-12.009286 6.612547,0 11.973849,5.376902 11.973849,12.009286 0,6.632521 -5.361302,12.009273 -11.973849,12.009273 -6.613321,0 -11.974065,-5.376752 -11.974065,-12.009273 z"
       stroke-linejoin="round"
       stroke-miterlimit="10"
       fill-rule="evenodd"
       id="path7"
       style="fill:#ffffff;stroke:#ffffff;stroke-width:0.5;stroke-dasharray:none;stroke-opacity:1" />
    <path
       d="m 42.262861,5.1427412 c 13.117016,0 3.385594,11.1183818 3.385594,19.3345718 0,1.525378 2.117026,1.566438 2.117026,-0.08188 0,-6.298228 7.475831,-19.5988121 20.713424,-19.2023605 4.369906,0.1308739 4.267078,6.3002385 -0.217419,6.3002385 -7.213731,0 -15.153886,6.690952 -15.153886,16.567934 0,6 3.213857,10.919408 5.291621,12.280795 3.648149,2.390331 0.521773,6.898329 -3.810862,4.594509 -3.775807,-2.007735 -6.264793,-7.286762 -7.016317,-11.243345 -0.270063,-1.421814 -2.035752,-1.394133 -2.013237,0.473985 0.09145,7.587827 7.032309,15.518138 -3.163074,15.518138 -11.168404,0 -3.115783,-10.40592 -3.115783,-20.927951 0,-7.383876 -0.420782,-11.154849 -1.517475,-10.860992 -1.09181,0.29255 -1.027641,4.106863 -4.936447,4.159098 -3.000138,0.04009 -4.759223,-2.01144 -4.759223,-4.995648 0,-2.926909 1.923365,-4.766254 4.451209,-4.766254 4.565575,0 3.085439,3.844762 5.130208,3.296868 2.034156,-0.54505 -6.797076,-10.4477068 4.614626,-10.4477068 z"
       stroke-linejoin="round"
       stroke-miterlimit="10"
       fill-rule="evenodd"
       id="path8"
       style="fill:#ffffff;stroke:#ffffff;stroke-width:0.5;stroke-dasharray:none;stroke-opacity:1" />
    <path
       d="m 14.09955,26.623378 c 0,-8.446086 8.173794,-21.3852792 -2.980888,-21.3852792 -10.85551181,0 -2.835167,14.0805262 -2.6218722,21.3676662 0.2061925,7.044494 -7.84542156,23.087325 2.3553592,23.087325 10.201572,0 1.839482,-8.572464 5.125442,-8.597088 2.118483,-0.01588 1.582484,8.584125 9.499938,8.584125 6.282823,0 9.163528,-4.557389 9.163528,-10.305658 0,-5.353879 -2.934759,-9.915934 -9.051952,-9.915934 -8.245836,0 -7.815909,8.740926 -9.83293,8.740926 -1.866781,0 -1.656625,-4.094155 -1.656625,-11.576083 z"
       stroke-linejoin="round"
       stroke-miterlimit="10"
       fill-rule="evenodd"
       id="path9"
       style="fill:#ffffff;stroke:#ffffff;stroke-width:0.5;stroke-dasharray:none;stroke-opacity:1" />
  </g>
</svg>
