<svg width="720" height="720" xmlns="http://www.w3.org/2000/svg" xmlns:xlink="http://www.w3.org/1999/xlink" xml:space="preserve" overflow="hidden"><g transform="translate(-280 0)"><path d="M625.897 562.194C629.757 566.054 634.953 568.132 640 568.132 645.047 568.132 650.243 566.202 654.103 562.194L813.691 402.606C821.559 394.738 821.559 382.12 813.691 374.252 805.823 366.384 793.204 366.384 785.336 374.252L660.041 499.546 660.041 20.0412C660.041 8.90722 651.134 0 640 0 628.866 0 619.959 8.90722 619.959 20.0412L619.959 499.546 494.664 374.252C486.796 366.384 474.177 366.384 466.309 374.252 458.441 382.12 458.441 394.738 466.309 402.606L625.897 562.194Z" fill="#FFFFFF"/><path d="M913.155 679.918 366.845 679.918C355.711 679.918 346.804 688.825 346.804 699.959 346.804 711.093 355.711 720 366.845 720L913.155 720C924.289 720 933.196 711.093 933.196 699.959 933.196 688.825 924.289 679.918 913.155 679.918Z" fill="#FFFFFF"/></g></svg>